<svg xmlns="http://www.w3.org/2000/svg" viewBox="0 0 512 512"><path d="M256 0C115 0 0 115.1 0 256c0 141 115.1 256 256 256 141 0 256-115 256-256S397 0 256 0zm0 482C131.4 482 30 380.6 30 256S131.4 30 256 30s226 101.4 226 226-101.4 226-226 226z"/><path d="M217.4 352.5c-4.4 0-8.6-1.7-11.7-4.8l-78.8-78.8c-6.4-6.4-6.4-16.9 0-23.4 3.1-3.1 7.3-4.8 11.7-4.8 4.4 0 8.6 1.7 11.7 4.8l67.2 67.2 144.3-144.3c3.1-3.1 7.3-4.8 11.7-4.8s8.6 1.7 11.7 4.8c6.4 6.4 6.4 16.9 0 23.4l-156 156c-3.2 3-7.4 4.7-11.8 4.7z"/></svg>