<svg xmlns="http://www.w3.org/2000/svg" viewBox="0 0 512 512"><circle cx="256" cy="256" r="256" fill="#ffd93b"/><path d="M512 256c0 141.44-114.64 256-256 256-80.48 0-152.32-37.12-199.28-95.28 43.92 35.52 99.84 56.72 160.72 56.72 141.36 0 256-114.56 256-256 0-60.88-21.2-116.8-56.72-160.72C474.8 103.68 512 175.52 512 256z" fill="#f4c534"/><g fill="#3e4347"><path d="M97.936 91.968s52.256-41.84 112.896-25.12c0 0-74.896-71.696-112.896 25.12zM414.064 91.968s-52.256-41.84-112.896-25.12c0 0 74.896-71.696 112.896 25.12zM501.728 132.016v39.632c0 2.048-.8 3.936-1.968 5.616-5.52 7.92-3.872 14.288-3.872 36.624 0 61.824-40.976 106.768-97.504 106.768-59.792 0-110.992-50.56-126.256-101.024-2.16-7.136-8.672-12.016-16.128-12.016-7.456 0-13.968 4.88-16.144 12.016-15.264 50.464-66.464 101.024-126.256 101.024-56.512 0-97.504-44.944-97.504-106.768 0-22.336 1.664-28.704-3.872-36.624-1.168-1.68-1.968-3.584-1.968-5.616v-39.632c0-6.064 6.08-10.72 12.592-8.416 15.296 5.408 32.08 1.312 46.512-6.112 39.088-20.096 107.136-8.4 140.192 12.4 29.152 18.336 62.208 19.296 92.88 0 32.752-20.608 100.784-32.656 140.192-12.4 14.432 7.424 31.2 11.52 46.512 6.112 6.512-2.304 12.592 2.352 12.592 8.416z"/></g><g fill="#65b1ef"><path d="M283.888 189.168c0 47.472 55.312 110.624 114.432 110.624 47.472 0 76.736-38.48 76.736-85.968 0-47.472-29.264-85.968-76.736-85.968-47.472.016-114.432 13.84-114.432 61.312zM228.096 189.168c0 47.472-55.312 110.624-114.432 110.624-47.472 0-76.736-38.48-76.736-85.968 0-47.472 29.264-85.968 76.736-85.968 47.472.016 114.432 13.84 114.432 61.312z"/></g><g fill="#4e99d2"><path d="M161.888 132.688l-118.24 118.24C49.12 265.04 57.76 277.04 69.232 285.6L205.28 149.552c-11.872-8.048-27.216-13.472-43.392-16.864zM37.184 220.4c.448 7.696 1.696 15.072 3.648 22.064l111.552-111.552c-7.776-1.248-15.584-2.048-23.2-2.512l-92 92zM420.352 131.008L305.296 246.064c8.192 11.296 18.352 21.776 29.824 30.432L456.256 155.36c-9.072-11.52-21.2-20.08-35.904-24.352zM300.768 239.312l110.336-110.336c-4.112-.656-8.352-1.104-12.8-1.104-3.92 0-8.016.144-12.16.336l-94.368 94.368c2.48 5.648 5.488 11.248 8.992 16.736z"/></g><path d="M415.136 343.6c-23.056 75.424-83.52 129.44-154.88 129.44-71.168 0-131.84-54.016-154.88-129.616-1.664-5.904 4.048-10.88 9.776-8.48 56.24 24.512 233.616 24.896 290.208.176 5.712-2.592 11.616 2.576 9.776 8.48z" fill="#3e4347"/><path d="M260.256 473.024c27.92 0 54.128-8.368 77.12-22.944-6.208-29.824-38.736-46.48-66.208-34.624-8.624 3.712-18.176 4.16-27.184 1.488-25.616-7.616-52.896 7.808-60.048 33.616 22.832 14.304 48.768 22.464 76.32 22.464z" fill="#e24b4b"/><path d="M398.592 337.456c-28.608 48-82.912 61.84-138.336 61.84s-109.936-14.4-138.336-62.048c59.904 21.312 216.56 21.536 276.672.208z" fill="#fff"/></svg>