<svg xmlns="http://www.w3.org/2000/svg" viewBox="0 0 512.002 512.002"><path d="M489.676 209.65c19.2 154.032-110.352 283.344-264.304 263.936C120.412 460.354 35.66 375.618 22.38 270.674 2.876 116.482 132.684-13.262 286.908 6.37 391.9 19.73 476.572 104.626 489.676 209.65z" fill="#ffd93b"/><path d="M489.98 267.666c-12.288 107.568-99.312 194.368-206.928 206.352-84.864 9.456-162.016-26.208-210.432-86.16 46.8 37.856 108.416 58.032 174.784 50.704 107.984-11.92 195.264-99.216 207.2-207.2 7.328-66.368-12.848-127.968-50.704-174.784 60.016 48.544 95.808 125.968 86.08 211.088z" fill="#f4c534"/><path d="M331.996 356.898v99.968c0 22.672-14.576 43.584-36.512 49.616-26.352 7.36-52.704 7.36-79.056 0-21.936-6.032-36.512-26.944-36.512-49.616V353.65c0-44.464 38.128-79.936 83.472-75.664 39.616 3.824 68.608 39.152 68.608 78.912z" fill="#ffd93b"/><path d="M255.948 497.282c-11.776 0-23.744-1.664-35.568-4.976-15.168-4.176-25.728-18.736-25.728-35.44v-103.2c0-33.808 27.52-61.296 61.36-61.296 1.984 0 3.984.08 6.016.272 30.976 3.008 55.264 31.232 55.264 64.272v99.952c0 16.704-10.56 31.28-25.696 35.424-11.888 3.328-23.856 4.992-35.648 4.992z" fill="#3e4347"/><g fill="#e24b4b"><path d="M255.948 497.282c11.792 0 23.76-1.664 35.648-4.992 24.624-6.768 39.904-42.848 6.128-72.256-15.984-13.616-24.912 1.056-54.72 1.056-14.72 0-39.648-2.032-48.368 30.512v5.28c0 16.704 10.56 31.28 25.728 35.44 11.84 3.296 23.808 4.96 35.584 4.96zM223.788 146.37c10.208 55.712-78.352 134.624-78.352 134.624s-110.72-42.416-120.912-98.128c-5.232-28.512 13.648-55.856 42.144-61.088 21.808-3.984 42.96 6.16 53.968 23.888 4.016-20.48 20.192-37.456 42-41.456 28.576-5.232 55.92 13.648 61.152 42.16zM288.204 146.37c-10.208 55.712 78.368 134.624 78.368 134.624s110.72-42.416 120.912-98.128c5.216-28.512-13.664-55.856-42.176-61.072-21.808-4-42.944 6.144-53.968 23.872-4.016-20.48-20.192-37.456-42-41.456-28.56-5.232-55.904 13.648-61.136 42.16z"/></g><g fill="#3e4347"><path d="M301.084 13.698s68.096 3.68 106.288 72.24c0 0-29.904-126.976-106.288-72.24zM210.908 13.698s-68.096 3.68-106.288 72.24c0 0 29.904-126.976 106.288-72.24z"/></g></svg>