<svg viewBox="0 0 488.28 177.52">
  <path class="logo__ai" d="M445.51 129.19c0 1.91-.21 2.23-.85 2.23-2.44 0-9.32-.74-17.05-.74-5.61 0-21.28.74-23.72.74-.64 0-.85-.32-.85-2.23s.21-2.22.85-2.33l6.25-.84c1.06-.11 1.27-.43.74-1.48L405.37 113h-23.19c-3.49 10.17-2.65 10.8.11 11.86l5.5 2c.64.22.85.53.85 2.44s-.21 2.12-.85 2.12c-2.43 0-9.21-.74-14.82-.74s-10.91.74-13.34.74c-.64 0-.85-.21-.85-2.12s.21-2.12.85-2.44l3.49-1.58c3.18-1.49 3.6-2.12 10.7-16.42l10.8-21.6c5.5-11 12.17-25.31 15.14-32.51.53-1.27 1.06-1.59 3.81-1.59s3.28.32 3.81 1.59c3 7.2 9.22 21.5 14.51 32.51l17.9 37.28c.53 1 .53 1.16 1.59 1.48l3.28.84c.64.22.85.43.85 2.33zm-42.68-21.49l-10.69-22.35L384 107.7zM487.44 131.42c-2.44 0-10.8-.74-19.59-.74s-17.26.74-19.7.74c-.63 0-.85-.32-.85-2.23s.22-2.22.85-2.33l4.66-.74c1.06-.21 1.27-.42 1.27-1.48V60.47c0-1.06-.21-1.27-1.27-1.48l-4.66-.75c-.63-.1-.85-.42-.85-2.33s.22-2.22.85-2.22c2.44 0 10.8.74 19.59.74s17.26-.74 19.7-.74c.63 0 .84.32.84 2.22s-.21 2.23-.84 2.33l-4.66.75c-1.06.21-1.27.42-1.27 1.48v64.17c0 1.06.21 1.27 1.27 1.48l4.66.74c.63.11.84.43.84 2.33s-.21 2.23-.84 2.23z" />

  <path class="logo__battle" d="M167.6 142.25a11.78 11.78 0 01-.73 5.17 23.08 23.08 0 01-2.55 4.93 34.72 34.72 0 01-3.5 4.37c-1.28 1.36-2.44 2.51-3.49 3.47s-2.4 2.16-3.9 3.36-2.93 2.34-4.34 3.4-2.63 2-3.69 2.89a18.24 18.24 0 00-1.94 1.73l-2.67 2.54a2.3 2.3 0 01-1.09.6 7.63 7.63 0 01-1 .2 1.23 1.23 0 01-1.16-.65 3.12 3.12 0 01-.53-1.5 4.8 4.8 0 01.94-2.24 12.81 12.81 0 012.39-2.87 27.55 27.55 0 013.47-2.52c1.39-.86 3.27-2.19 5.64-4q1.77-1.37 4.28-3.54a51.26 51.26 0 004.68-4.64 29.7 29.7 0 003.64-5 8.29 8.29 0 001.26-4.87c-.06-.59-.82-1.14-2.3-1.64a15.25 15.25 0 00-6.09-.39 31.73 31.73 0 00-8.23 2c-2.84 1.06-5.45 2.17-7.85 3.32s-4.45 2.21-6.16 3.16a13 13 0 01-3.17 1.49c.34 1.51.76 3.35 1.26 5.54s1 4.3 1.52 6.32c.55 2.35 1.14 4.79 1.77 7.34h.4a29.83 29.83 0 001.06 2.81 10.36 10.36 0 01.86 2.92c.1 1.06-.25 1.62-1 1.7-.4 0-.88-.29-1.44-1a22.41 22.41 0 01-1.72-2.45 30.56 30.56 0 01-1.56-2.81c-.45-.92-.76-1.58-.93-2q-1.2-3.2-2.43-7.39t-2.3-8.5q-1-4.26-1.73-8.05t-.93-6.27a2.05 2.05 0 01.24-1.22 1.73 1.73 0 00.26-1 1 1 0 00-.32-.73 1.14 1.14 0 01-.32-.82 1.61 1.61 0 01.09-.66q.11-.36.81-.42a4.88 4.88 0 001.36.08 2.6 2.6 0 011.16.14 1.82 1.82 0 01.87.77 4.59 4.59 0 01.47 1.86v.59a2.35 2.35 0 010 .46 2.29 2.29 0 000 .45c.1 1.12.21 2 .34 2.67s.26 1 .39 1a8.49 8.49 0 002-1.63q1.71-1.6 4.09-4t5.16-5.37l5.33-5.69c.67-.73 1.58-1.76 2.72-3.1s2.27-2.76 3.36-4.26 2-2.9 2.82-4.21a5.67 5.67 0 001.08-3c-.06-.66-.29-1-.68-.94a17.13 17.13 0 00-3.31 1c-1.68.62-3.58 1.42-5.69 2.37s-4.28 2-6.51 3.25a53.6 53.6 0 00-5.87 3.64c-1.74 1.43-3.46 3-5.18 4.67s-3.25 3.29-4.61 4.78-2.49 2.76-3.36 3.81a16.08 16.08 0 00-1.38 1.77.58.58 0 00-.17.42 1.48 1.48 0 00.2.53 1.48 1.48 0 01.2.53c0 .2-.1.38-.35.54a1.94 1.94 0 01-.88.27 7.19 7.19 0 01-2-.16c-.82-.16-1.27-.77-1.37-1.83a6.34 6.34 0 011.27-3.61 37.93 37.93 0 013.71-4.85 68.64 68.64 0 015.18-5.22c1.9-1.74 3.79-3.37 5.65-4.87a72.08 72.08 0 016.17-4.22q3.38-2.06 6.67-3.66a55 55 0 016.32-2.62 22.1 22.1 0 015-1.21 9.17 9.17 0 011.8 0 9.43 9.43 0 011.94.43 4.58 4.58 0 011.59.9 2.22 2.22 0 01.73 1.49 11.26 11.26 0 01-1.08 5.65 32.3 32.3 0 01-3.65 6.08 79.22 79.22 0 01-5.27 6.34c-2 2.15-3.95 4.23-5.94 6.24l-5.72 5.83a67 67 0 00-4.54 5.07c.71-.33 1.86-.89 3.45-1.67s3.34-1.57 5.24-2.38 3.81-1.53 5.75-2.17a23.51 23.51 0 015.2-1.18c.46 0 1.46-.1 3-.17a21.48 21.48 0 014.84.36 13 13 0 014.67 1.82 5.18 5.18 0 012.33 4.13zM224.4 146.36a8.92 8.92 0 01-1.23 4.57 23.89 23.89 0 01-3.95 5.51 26.72 26.72 0 01-6.06 4.81 17.78 17.78 0 01-7.49 2.43 13 13 0 01-3.82-.25 16.88 16.88 0 01-4-1.38 15.42 15.42 0 01-3.63-2.47 10.45 10.45 0 01-2.52-3.52 11.32 11.32 0 00-1.26 2.11c-.47 1-1 2-1.57 3a13.72 13.72 0 01-2 2.68 3.76 3.76 0 01-2.39 1.27 2.48 2.48 0 01-2.25-1.15 12 12 0 01-1.61-2.85 19.61 19.61 0 01-1-3.06c-.23-1-.34-1.54-.36-1.67a27.93 27.93 0 01.29-4.58 43.81 43.81 0 011.45-7.09 25.87 25.87 0 012.94-6.67 6.27 6.27 0 014.76-3.24 1.39 1.39 0 011.52.82 5.11 5.11 0 01.52 1.8l.27 3a3.08 3.08 0 001.09.45 4.43 4.43 0 011 .3 1.72 1.72 0 01.76.68 3.79 3.79 0 01.4 1.57 7.51 7.51 0 010 1.25 6.13 6.13 0 000 1.05 30.79 30.79 0 00.86 5 11.84 11.84 0 002 4.27 9.45 9.45 0 003.56 2.88 10.78 10.78 0 005.67.73 14 14 0 007.23-2.51 23.08 23.08 0 004.69-4.53 32.85 32.85 0 002.85-4.36c.68-1.3 1.29-2 1.82-2a1.13 1.13 0 011.46 1.15zm-35.22-1.18a1.62 1.62 0 00-.27-.73 1.29 1.29 0 01-.26-.62 1.23 1.23 0 01.14-.72 1.45 1.45 0 00.12-.81.51.51 0 00-.24-.43.43.43 0 01-.23-.33 3.46 3.46 0 00-1.68 1.86 24 24 0 00-1.47 3.63 26.8 26.8 0 00-1 4.15 14.43 14.43 0 00-.19 3.37 10.66 10.66 0 00.6 2.24 4.73 4.73 0 001.09 2c.91-2.41 1.75-4.76 2.51-7a16.23 16.23 0 00.88-6.61z" />
  <path class="logo__battle" d="M249.68 119.64a15.34 15.34 0 01-3.41 3.26c-1.5 1.11-3 2.13-4.52 3.07s-2.84 1.74-4 2.41-1.7 1.11-1.68 1.31a11.17 11.17 0 00.56 1.75c.35 1 .77 2.11 1.26 3.43s1 2.7 1.53 4.12 1 2.68 1.34 3.78c.2.65.44 1.49.74 2.53s.57 2.08.83 3.13.5 2 .71 2.78.31 1.26.32 1.33a10.17 10.17 0 01-.22 3.12c-.23 1.09-.71 1.66-1.44 1.73a1.52 1.52 0 01-1.14-.4 5.92 5.92 0 01-1-1.06 5.77 5.77 0 01-.71-1.18 3.24 3.24 0 01-.28-.88 5.22 5.22 0 010-.6 7 7 0 000-.89 36.06 36.06 0 00-1.09-5.41q-.3-1.07-1.11-3.3t-1.61-4.56c-.63-1.8-1.35-3.77-2.14-5.9a4.58 4.58 0 00-.63-1.35 6.45 6.45 0 00-2.25 1.06c-1 .66-2.22 1.47-3.53 2.42s-2.69 2-4.12 3.08l-4 3.07q-1.87 1.42-3.24 2.4a6.16 6.16 0 01-1.66 1 2.67 2.67 0 01-2.16-.7 2.94 2.94 0 01-1-1.92c0-.39.46-1 1.48-1.88s2.3-1.83 3.84-2.9 3.2-2.2 5-3.36 3.47-2.22 5-3.16l5.45-3.3c-.87-3-1.62-5.66-2.23-8q-.78-3-1.46-5.57c-.45-1.69-.69-2.6-.7-2.74a2.89 2.89 0 01.37-2 1.58 1.58 0 011.18-.76c.73-.07 1.24.39 1.53 1.36q1.57 5.26 2.9 9.34a66.43 66.43 0 002.45 6.58 20.86 20.86 0 003-1.42q2.1-1.14 4.38-2.45c1.52-.88 2.9-1.65 4.14-2.33a11.86 11.86 0 012.16-1 .7.7 0 01.78.33 3.23 3.23 0 00.38.63z" />
  <path class="logo__battle" d="M281.33 116.75a15.27 15.27 0 01-3.4 3.26q-2.25 1.67-4.53 3.07t-4 2.41c-1.14.67-1.7 1.11-1.68 1.31a11.17 11.17 0 00.56 1.75c.35 1 .78 2.11 1.26 3.43s1 2.7 1.53 4.12 1 2.68 1.35 3.78l.73 2.53c.29 1 .57 2.08.83 3.12s.5 2 .71 2.79.31 1.26.32 1.32a10.22 10.22 0 01-.22 3.13c-.23 1.09-.71 1.66-1.44 1.73a1.55 1.55 0 01-1.13-.4 5.62 5.62 0 01-1-1.06 5.77 5.77 0 01-.71-1.18 3.24 3.24 0 01-.28-.88 5.22 5.22 0 010-.6 7.16 7.16 0 000-.9 36.23 36.23 0 00-1.09-5.4c-.2-.71-.57-1.81-1.1-3.3s-1.08-3-1.62-4.56c-.63-1.8-1.35-3.77-2.14-5.9a4.91 4.91 0 00-.62-1.35 6.4 6.4 0 00-2.26 1.06c-1 .66-2.21 1.47-3.53 2.42s-2.69 2-4.12 3.08l-4 3.07c-1.25 1-2.33 1.75-3.23 2.4a6.5 6.5 0 01-1.66 1 2.69 2.69 0 01-2.17-.7 3 3 0 01-1-1.92c0-.39.46-1 1.48-1.88s2.3-1.83 3.84-2.9 3.2-2.2 5-3.36 3.46-2.22 5-3.16l5.45-3.3q-1.31-4.48-2.23-8c-.52-2-1-3.88-1.46-5.57s-.69-2.61-.7-2.74a3 3 0 01.37-2 1.59 1.59 0 011.18-.75c.73-.07 1.24.38 1.53 1.36q1.58 5.25 2.9 9.34a66.43 66.43 0 002.45 6.58 20.82 20.82 0 003-1.42q2.08-1.14 4.37-2.45c1.53-.88 2.91-1.65 4.14-2.33a11.86 11.86 0 012.16-1q.6-.06.78.33a3.53 3.53 0 00.38.62zM303.23 158.27a2.39 2.39 0 01-1.35.53c-.6 0-1.26-.45-2-1.52a27.73 27.73 0 01-2.23-4.1q-1.12-2.49-2.19-5.45c-.72-2-1.35-3.81-1.91-5.53s-1-3.16-1.35-4.33-.51-1.82-.53-2a15 15 0 00-.53-2.06c-.34-1.1-.8-2.83-1.38-5.17s-1.26-5.41-2-9.17-1.66-8.44-2.64-14a12 12 0 01.09-2.31c.12-.94.54-1.45 1.27-1.52.92-.08 1.69.48 2.3 1.7a23 23 0 011.62 4.55c.47 1.83.86 3.74 1.17 5.75s.65 3.76 1 5.26c.46 2.09.89 4 1.27 5.69s.78 3.38 1.17 5 .84 3.41 1.37 5.23 1.17 3.83 1.91 6l5.43 16.18a1.34 1.34 0 01-.49 1.27zM338.35 146.26a1.45 1.45 0 01.16.59 3.75 3.75 0 01-.73 1.87 12.4 12.4 0 01-1.17 1.4 13.11 13.11 0 01-2.52 2 20.51 20.51 0 01-9.61 3.18 10.34 10.34 0 01-4.57-.63 11.53 11.53 0 01-4.15-2.72 17.09 17.09 0 01-3.24-4.81 21.07 21.07 0 01-1.74-7 26 26 0 012.32-13.52 14.88 14.88 0 013-4.39 6.07 6.07 0 013.54-1.82 8.71 8.71 0 013.28.35 13 13 0 013.13 1.37 8.79 8.79 0 012.34 2 4.72 4.72 0 011 2.46 4.86 4.86 0 01-1.06 3.2 16.76 16.76 0 01-3 3.22 21.87 21.87 0 01-3.57 2.53 7.94 7.94 0 01-2.9 1.12 1.35 1.35 0 01-1.09-.46 2 2 0 01-.57-1.29 2.49 2.49 0 011-2.3A20.09 20.09 0 01321 131a14.16 14.16 0 002.59-1.79 2.88 2.88 0 001-2.59 3 3 0 00-.58-1c-.38-.49-1.3-.68-2.76-.55a3.75 3.75 0 00-2.17 1.35 13.39 13.39 0 00-2.2 3.31 19.25 19.25 0 00-1.57 4.74 19.63 19.63 0 00-.27 5.78 11.06 11.06 0 001.37 4.58 11.32 11.32 0 002.75 3.3 10.46 10.46 0 003.67 1.91 11.08 11.08 0 004.15.43 9.46 9.46 0 003.16-.94c1.12-.54 2.17-1.1 3.15-1.69s1.83-1.14 2.55-1.64a4.78 4.78 0 011.38-.77 1 1 0 01.67.24 1.34 1.34 0 01.46.59z" />

  <path class="logo__music" d="M46.21 90.65l-24.49-48h-.13l-3.91 45.73H0L7.58 2.27h14.26l25 50.88H47L71.71 2.27H86l7.57 86.11H75.88l-4-45.58h-.13L47.47 90.65zm-43.43-4.8h5.05l6.82-81h-4.8zm7.45 0h5l5.8-67.42h.13l21.89 44.06 2.65-5.93L20.07 4.8h-2.9zm68.05 0h5l-7.07-81h-2.73L43.05 67.67h-.12l-20.2-40.4-.76 10 21 41.16 29.5-60.12h.12zM46.71 86h.13l24.74-48.76-.63-10-26.64 53.94zm39-.13h5L83.7 4.8h-5zM145.19 90.65c-19.83 0-32.32-10.23-32.32-29.54V2.27h17.67v57.07c0 10.1 5.3 15.15 14.65 15.15s14.51-5 14.51-15.15V2.27h17.68v58.84c0 19.31-12.5 29.54-32.19 29.54zm0-2.53h2.39v-4.29h-2.39c-14.9 0-24.75-7.83-24.75-23.48V4.8h-5v56.05c-.05 18.15 11.69 27.27 29.75 27.27zM140 80.93v-4.42c-7.58-1.77-12-7.7-12-16.92V4.8h-5v55.3c0 12.24 6.53 19.19 17 20.83zm5.18.38c13.25 0 22.09-7.07 22.09-21.21V4.8h-5.05v54.79c0 11.24-6.57 17.42-17 17.42a19.74 19.74 0 01-2.66-.12v4.29a18.23 18.23 0 002.63.13zm4.92 6.56c15.15-1.64 24.74-10.6 24.74-27V4.8h-5v55.55c0 13.89-7.57 21.59-19.69 23.1zM220.81 90.65c-9.6 0-18.44-1.9-25.13-6.69V64.77h.51a34 34 0 0023.73 10.48c8.46 0 13.39-3 13.39-9.35 0-15.9-37.12-10.48-37.12-39.89 0-13.26 7.83-26 28.53-26 8.21 0 17 1.89 23.1 6.69v19.18h-.5c-6.44-7.07-14.27-10.48-21.84-10.48s-11.62 3.54-11.62 8.84c0 16 37 10.35 37 40.4-.01 14.65-10.61 26.01-30.05 26.01zm-.26-2.53c17.55 0 27.78-9.84 27.78-23.23a11.19 11.19 0 00-.13-2.14h-4.92a15.55 15.55 0 01.13 2.52c0 10.73-8.34 18.81-23.23 18.81-8.46 0-16.54-2.65-22-6.56v5c5.82 3.71 13.28 5.6 22.37 5.6zm-.5-6.31c11 0 18-4.67 20.2-11.61h-5.18c-1.76 4.92-6.94 7.57-15.15 7.57a34.32 34.32 0 01-21.71-8v5.05a36.89 36.89 0 0021.84 6.99zM198.84 27.9h5a19 19 0 01-.13-2.78c0-9.72 6.32-18.56 21.47-18.56A33.17 33.17 0 01245.3 13V8c-5.93-3.78-12.37-5.43-20.45-5.43-18.44 0-26.14 11.12-26.14 23.24a11.19 11.19 0 00.13 2.09zm36.86 39.77h5.05a11.94 11.94 0 00.13-2.15c0-21.08-31.44-16.53-36.49-35.09h-5.3c3.92 22.34 36.74 18.18 36.74 35.35a9.25 9.25 0 01-.13 1.89zm7.07-7.45H248c-4-22.72-36.66-18.68-36.66-35.73a6.42 6.42 0 01.12-1.51h-5.05a10 10 0 00-.12 1.89c0 21.21 31.71 16.54 36.48 35.35zM245.3 21v-5.09a32.92 32.92 0 00-20-7.07c-10.86 0-16.66 5.05-18.43 11.61H212c1.39-4.54 5.68-7.57 13.51-7.57A28.71 28.71 0 01245.3 21zM268.53 88.38V2.27h17.67v86.11zm2.52-2.53h5.05V4.8h-5.05zM278.63 37h5.05V4.8h-5.05zm0 48.86h5.05V39.52h-5.05zM343.39 90.65c-22.09 0-40.4-16.16-40.4-45.33C303 17.42 319.4 0 343.52 0c8.58 0 18.3 2.4 24.62 7.45v20.7h-.51A29 29 0 00345 16.67c-14.52 0-23.61 11.11-23.61 28.65 0 17.3 9.09 28.66 24.12 28.66a28.6 28.6 0 0022.6-11.49h.5V83.2c-6.28 4.54-16.13 7.45-25.22 7.45zm-37.62-40h5.43c-.13-1.77-.25-3.54-.25-5.31 0-22 11-36.23 28.78-38V2.65c-21 1.77-34.21 17.93-34.21 42.67 0 1.77.12 3.54.25 5.31zm38 37.49c8.46 0 16.54-2.4 22.35-6.44v-5.07a37 37 0 01-22 7c-17.17 0-29.92-11.24-32.7-30.43H306c2.93 22.55 18.33 34.92 37.77 34.92zm.76-7.07a21.63 21.63 0 002.78-.12v-4.57a9.39 9.39 0 01-1.9.13c-16.16 0-26.51-12.37-26.51-31.19a43.69 43.69 0 01.38-5.8h-5.56c-.12 1.89-.25 3.78-.25 5.8 0 21.97 12.37 35.73 31.06 35.73zM314.1 37h5.56c2.52-14.26 11.86-22.85 25.25-22.85a29.82 29.82 0 0120.7 8.33v-5.3c-5.17-4.8-13-7.57-21.46-7.57C327.48 9.6 316.63 19.82 314.1 37zm51.51-22.72V9c-5.43-4.29-13.63-6.44-22-6.44h-1.38v4.51h1.51c8.87 0 17.2 2.65 21.87 7.2zm-15.78 66.4a35 35 0 0016.29-6.81v-5.82a30.28 30.28 0 01-16.29 8.08z" />
</svg>