<svg xmlns="http://www.w3.org/2000/svg" viewBox="0 0 512 512">
  <path d="M17.1 234.7h34.1c7.5.2 14.6 3.1 20.1 8.2 17.7 17.2 41.7 26.6 66.4 26h.3l66.8.1c.1 0 .2-.1.3-.1h21.1c7.9 0 15.5-3.2 21.1-8.8 5.6-5.6 8.7-13.2 8.7-21.1 0-4.5-1.1-8.9-3.1-12.9 16-.5 28.7-13.7 28.6-29.7 0-4.5-1.1-8.9-3-12.9 16.1-.5 28.9-13.6 28.9-29.7s-12.8-29.3-28.9-29.7c4.4-9.2 3.8-20.1-1.6-28.8-5.5-8.7-15-14-25.2-14h-55.4c0-9.1-3.6-17.8-10-24.2-6.4-6.4-15.1-10-24.2-10l-17-.1h-.5c-34.2 0-45.4 10.1-70.8 41-6 6-14 9.7-22.6 10.2H17.1c-9.5-.1-17.1 7.6-17.1 17v102.4c0 9.4 7.6 17.1 17.1 17.1zm209 17H192c-7.1 0-12.8-5.7-12.8-12.8 0-7.1 5.7-12.8 12.8-12.8h34.1c7.1 0 12.8 5.7 12.8 12.8 0 7.1-5.7 12.8-12.8 12.8zm34.7-46.4c-2.4 2.4-5.6 3.7-9 3.7H192c-3.4 0-6.7-1.3-9.1-3.8-2.4-2.4-3.7-5.6-3.7-9 0-1.5.3-3 .9-4.4 5.8-.1 11-3.3 13.8-8.4h57.8c3.4 0 6.6 1.3 9.1 3.7 2.4 2.4 3.8 5.7 3.7 9.2 0 3.4-1.3 6.7-3.7 9zm29.3-51.7c0 7.1-5.7 12.8-12.8 12.8l-81.2.1v-25.7h81.1c3.4-.1 6.7 1.3 9.1 3.7s3.9 5.7 3.8 9.1zm-29.4-51.7c2.4 2.4 3.8 5.7 3.8 9.1 0 3.4-1.3 6.6-3.7 9-2.4 2.4-5.7 3.8-9.1 3.7h-55.5V98.1h55.4c3.5 0 6.7 1.4 9.1 3.8zM17.1 115.2h34.1c13.6-.5 26.5-6.4 35.8-16.3 25.5-31 32.2-34.9 58.1-34.8l17-.1c4.5 0 8.9 1.8 12.1 5s5 7.6 5 12.1v93.8h-8.5c-9.4 0-17.1-7.6-17.1-17.1v-51.2c0-4.7-3.8-8.5-8.5-8.5s-8.5 3.8-8.5 8.5v51.2c0 15.7 10.8 29.4 26.1 33.1-.3 1.8-.5 3.5-.5 5.3-.1 7.9 3.1 15.5 8.6 21.1l.3.3c-9.2 8.9-11.6 22.7-6 34.1h-27.2c-20.1.6-39.7-6.8-54.3-20.7-8.6-8.5-20.3-13.4-32.4-13.5H17.1V115.2zM494.9 294.4h-34.1c-8.5-.5-16.6-4.1-22.6-10.1-25.6-31.1-37-41.4-71.2-41.1l-17.1-.1c-18.8.1-34 15.3-34.1 34.1l-55.4.1c-10.3-.1-19.9 5.2-25.3 13.9s-6.1 19.6-1.6 28.9c-16.1.5-28.8 13.7-28.6 29.8.1 16 12.7 29 28.7 29.7-4.4 9-4 19.7 1.2 28.3 5.2 8.6 14.4 14 24.4 14.4-2 4-3 8.5-3.1 12.9 0 16.5 13.4 29.9 29.9 29.9h21.3l66.7-.1h.2c24.7.6 48.7-8.7 66.4-25.9 5.5-5.1 12.7-8 20.1-8.1h34.1c9.4 0 17.1-7.6 17.1-17.1V311.5c.1-9.5-7.5-17.1-17-17.1zm-243.6 3.8c2.4-2.4 5.7-3.8 9.1-3.8l55.4-.1V320h-55.5c-3.4 0-6.7-1.3-9.1-3.8-2.4-2.4-3.7-5.6-3.7-9 0-3.4 1.4-6.6 3.8-9zm-29.4 51.7c0-3.4 1.3-6.7 3.7-9.1 2.4-2.4 5.7-3.7 9.1-3.7h81.1v25.7l-81.1-.1c-7.1 0-12.8-5.8-12.8-12.8zm25.6 42.6c-.1-3.4 1.3-6.7 3.7-9.1 2.4-2.4 5.7-3.7 9.1-3.7h57.9c2.8 5.1 8.1 8.2 13.8 8.4.5 1.4.8 2.9.9 4.5 0 3.4-1.3 6.6-3.7 9-2.4 2.5-5.7 3.8-9.1 3.8h-59.7c-3.4 0-6.6-1.3-9-3.7-2.6-2.5-3.9-5.8-3.9-9.2zm25.6 42.7c0-7.1 5.7-12.8 12.8-12.8H320c7.1 0 12.8 5.7 12.8 12.8S327.1 448 320 448h-34.1c-7.1 0-12.8-5.7-12.8-12.8zm221.8-21.3h-34.1c-12.2.1-23.8 4.9-32.5 13.5-14.5 13.8-34 21.3-54.1 20.6h-27.3c5.6-11.5 3.2-25.3-6-34.1l.3-.3c5.6-5.6 8.7-13.1 8.7-21 0-1.8-.2-3.6-.5-5.3 15.3-3.7 26.1-17.4 26.2-33.1V303c0-4.7-3.8-8.5-8.5-8.5s-8.5 3.8-8.5 8.5v51c0 9.4-7.6 17.1-17.1 17.2H333l-.1-93.8c0-4.5 1.8-8.9 5-12.1 3.2-3.2 7.6-5 12.1-5l17.1.1c26-.2 32.5 3.9 58 34.9 9.3 10 22.2 15.8 35.8 16.3H495l-.1 102.3zM124.8 408.7c2.2 1.6 5 2.1 7.6 1.3l35.4-10.8 12.3 35c1.6 4.4 6.4 6.8 10.9 5.2 4.4-1.6 6.8-6.4 5.2-10.9l-15-42.7c-1.5-4.3-6.2-6.6-10.5-5.3l-32.1 9.7.4-33.5c.1-4.6-3.5-8.4-8.1-8.6l-33.5-1.8 11.8-31.4c1.6-4.3-.4-9.1-4.6-10.9L63 286.3c-4.3-1.8-9.3.2-11.2 4.5-1.8 4.3.2 9.3 4.5 11.2l34 14.5-13.1 34.6c-1 2.5-.7 5.4.8 7.7s4 3.7 6.7 3.9l36.9 2-.5 37c.2 2.9 1.5 5.4 3.7 7zM376.2 89.9c-2.1-1.7-4.9-2.4-7.5-1.7l-35.9 9-8.9-29.9c-1.3-4.5-6.1-7.1-10.6-5.8s-7.1 6.1-5.8 10.6l11.2 37.8c1.3 4.4 5.8 7 10.2 5.9l32.5-8.1-2.1 33.5c-.3 4.6 3.1 8.6 7.7 9l33.3 3.5-13.4 30.7c-1.8 4.2 0 9.1 4.1 11.1l30.1 14.6-9.8 10.3c-2.1 2.2-2.9 5.4-2 8.3.9 2.9 3.2 5.2 6.2 5.9 3 .7 6.1-.2 8.2-2.4l17.9-18.8c1.9-2 2.7-4.7 2.2-7.4s-2.2-5-4.7-6.2l-33.3-16.2 14.8-33.9c1.1-2.5.9-5.4-.5-7.7s-3.8-3.9-6.5-4.2l-36.8-3.8 2.3-36.9c.3-2.9-.8-5.5-2.9-7.2z" />
</svg>