<?xml version="1.0" encoding="utf-8"?>
<!-- Generator: Adobe Illustrator 25.2.2, SVG Export Plug-In . SVG Version: 6.00 Build 0)  -->
<svg version="1.1" id="Layer_1" xmlns="http://www.w3.org/2000/svg" xmlns:xlink="http://www.w3.org/1999/xlink" x="0px" y="0px"
	 viewBox="0 0 512 512" style="enable-background:new 0 0 512 512;" xml:space="preserve">
<path d="M256,0C114.8,0,0,114.8,0,256s114.8,256,256,256s256-114.8,256-256S397.2,0,256,0z M346.7,362.7H165.3c-8.8,0-16-7.2-16-16
	c0-8.8,7.2-16,16-16h181.3c8.8,0,16,7.2,16,16C362.7,355.5,355.5,362.7,346.7,362.7z M346.7,272H165.3c-8.8,0-16-7.2-16-16
	c0-8.8,7.2-16,16-16h181.3c8.8,0,16,7.2,16,16C362.7,264.8,355.5,272,346.7,272z M346.7,181.3H165.3c-8.8,0-16-7.2-16-16
	c0-8.8,7.2-16,16-16h181.3c8.8,0,16,7.2,16,16C362.7,174.2,355.5,181.3,346.7,181.3z"/>
</svg>
