<?xml version="1.0" encoding="utf-8"?>
<!-- Generator: Adobe Illustrator 25.2.2, SVG Export Plug-In . SVG Version: 6.00 Build 0)  -->
<svg version="1.1" id="Layer_1" xmlns="http://www.w3.org/2000/svg" xmlns:xlink="http://www.w3.org/1999/xlink" x="0px" y="0px"
	 viewBox="0 0 512 512" style="enable-background:new 0 0 512 512;" xml:space="preserve">
<path d="M256,512C114.8,512,0,397.2,0,256S114.8,0,256,0s256,114.8,256,256S397.2,512,256,512z M256,32C132.5,32,32,132.5,32,256
	s100.5,224,224,224s224-100.5,224-224S379.5,32,256,32z"/>
<path d="M360.4,334.5L281.9,256l78.5-78.5c7.1-7.1,7.1-18.7,0-25.9c-7.1-7.1-18.7-7.1-25.9,0L256,230.1l-78.5-78.5
	c-7.1-7.1-18.7-7.1-25.9,0c-7.1,7.1-7.1,18.7,0,25.9l78.5,78.5l-78.5,78.5c-7.1,7.1-7.1,18.7,0,25.9c3.6,3.6,8.2,5.4,12.9,5.4
	s9.4-1.8,12.9-5.4l78.5-78.5l78.5,78.5c3.6,3.6,8.2,5.4,12.9,5.4s9.4-1.8,12.9-5.4C367.5,353.2,367.5,341.6,360.4,334.5z"/>
</svg>
