<svg viewBox="0 0 512 512" >
  <path d="m497 25.993h-482c-8.284 0-15 6.715-15 15v430.014c0 8.284 6.716 15 15 15h482c8.284 0 15-6.716 15-15v-430.014c0-8.284-6.716-15-15-15zm-376.003 430.014h-90.997v-220.009h60.998v105c0 8.284 6.716 15 15 15h14.999zm120.003 0h-90.003v-100.009h15.001c8.284 0 15-6.716 15-15v-105h30.001v105c0 8.284 6.716 15 15 15h15.001zm-120.002-130.009v-90h30v90zm150.001 0h-30v-90h30zm90.004 130.009h-90.003v-100.009h14.999c8.284 0 15-6.716 15-15v-105h30.002v105c0 8.284 6.716 15 15 15h15.002zm29.998-130.009h-30v-90h30zm90.999 130.009h-90.997v-100.009h14.998c8.284 0 15-6.716 15-15v-105h60.999zm0-250.009h-452v-150.005h452z" />
  <path d="m165.502 175.989c24.813 0 45-20.187 45-45s-20.188-45-45-45-45 20.187-45 45 20.187 45 45 45zm0-60c8.271 0 15 6.729 15 15s-6.729 15-15 15-15-6.729-15-15 6.729-15 15-15z" />
  <path d="m346.498 175.989c24.814 0 45-20.187 45-45s-20.186-45-45-45c-24.813 0-45 20.187-45 45s20.187 45 45 45zm0-60c8.272 0 15 6.729 15 15s-6.728 15-15 15c-8.271 0-15-6.729-15-15s6.729-15 15-15z" />
  <circle cx="75" cy="100.99" r="15" />
  <circle cx="75" cy="160.99" r="15" />
  <circle cx="256" cy="100.99" r="15" />
  <circle cx="256" cy="160.99" r="15" />
  <circle cx="437" cy="100.99" r="15" />
  <circle cx="437" cy="160.99" r="15" />
</svg>