<svg xmlns="http://www.w3.org/2000/svg" viewBox="0 0 420.906 420.906">
  <path d="M406.688 49.77c-9.233-9.231-22.016-14.316-35.995-14.316-17.458 0-35.266 7.796-48.857 21.388-11.843 11.843-19.308 26.842-21.018 42.234a59.203 59.203 0 00-.354 6.537h-.01V269.5l-120 23.439v-110.85c6.239 2.564 13.111 3.921 20.305 3.921 17.458 0 35.266-7.796 48.857-21.388 25.344-25.343 28.516-63.407 7.072-84.853-9.233-9.23-22.016-14.316-35.995-14.316-17.458 0-35.266 7.796-48.857 21.388-11.843 11.843-19.308 26.842-21.018 42.234a59.203 59.203 0 00-.354 6.537h-.01V298.8L30 322.328v-110.38c6.239 2.564 13.111 3.921 20.305 3.921 17.458 0 35.266-7.796 48.857-21.388 25.344-25.343 28.516-63.407 7.072-84.853-9.232-9.232-22.016-14.316-35.995-14.316-17.458 0-35.266 7.796-48.857 21.388C9.539 128.543 2.074 143.542.364 158.935a58.96 58.96 0 00-.354 6.537H0v219.981l330.453-59.859V152.089c6.239 2.564 13.111 3.921 20.305 3.921 17.458 0 35.266-7.796 48.857-21.388 25.344-25.343 28.516-63.407 7.073-84.852z" />
</svg>