<?xml version="1.0" encoding="utf-8"?>
<!-- Generator: Adobe Illustrator 25.2.2, SVG Export Plug-In . SVG Version: 6.00 Build 0)  -->
<svg version="1.1" id="Layer_1" xmlns="http://www.w3.org/2000/svg" xmlns:xlink="http://www.w3.org/1999/xlink" x="0px" y="0px"
	 viewBox="0 0 512 512" style="enable-background:new 0 0 512 512;" xml:space="preserve">
<path d="M256,0C115,0,0,115.1,0,256c0,141,115.1,256,256,256c141,0,256-115,256-256S397,0,256,0z M290.5,419.1
	c-33.9,0-65.6-13.1-89.5-37l-90.5-90.5c-2.3-2.3-3.5-5.2-3.5-8.4s1.2-6.2,3.5-8.4l46.4-46.4c2.3-2.3,5.2-3.5,8.4-3.5
	s6.2,1.2,8.4,3.5l90.5,90.5c7,7,16.3,10.9,26.3,10.9c9.9,0,19.3-3.9,26.3-10.9c7-7,10.9-16.3,10.9-26.3s-3.9-19.3-10.9-26.3
	l-90.5-90.5c-4.6-4.6-4.6-12.2,0-16.9l46.4-46.4c2.2-2.3,5.2-3.5,8.4-3.5c3.2,0,6.2,1.2,8.4,3.5l90.5,90.5
	c49.4,49.4,49.4,129.7,0,179.1C356.2,406,324.4,419.1,290.5,419.1z M217.9,365.3c19.4,19.4,45.2,30.1,72.7,30.1
	c27.5,0,53.3-10.7,72.7-30.1c40.1-40.1,40.1-105.3,0-145.3l-49.5-49.5L284.2,200l49.5,49.5c23.8,23.8,23.8,62.5,0,86.3
	c-11.5,11.5-26.8,17.8-43.1,17.8s-31.6-6.3-43.1-17.8l-49.5-49.5l-29.5,29.5L217.9,365.3z M151.5,298.9l29.5-29.5l-15.7-15.7
	l-29.5,29.5L151.5,298.9z M267.3,183.1l29.5-29.5l-15.7-15.7l-29.5,29.5L267.3,183.1z M222.4,120.6c-3.2,0-6.2-1.2-8.4-3.5
	l-18.2-18.2c-2.3-2.3-3.5-5.2-3.5-8.4s1.2-6.2,3.5-8.4c2.3-2.3,5.2-3.5,8.4-3.5c3.2,0,6.2,1.2,8.4,3.5l18.2,18.2
	c2.3,2.3,3.5,5.2,3.5,8.4c0,3.2-1.2,6.2-3.5,8.4C228.6,119.4,225.6,120.6,222.4,120.6z M198,160.2c-0.9,0-1.8-0.1-2.6-0.3l-14.9-1.2
	l-0.2,0c-3.1-0.7-5.7-2.6-7.4-5.3c-1.7-2.7-2.2-5.9-1.4-9c1.3-5.4,6-9.2,11.6-9.2c0.9,0,1.8,0.1,2.6,0.3l14.9,1.2l0.2,0
	c4.3,1,7.5,4.1,8.7,8.3c1.2,4.2,0.1,8.6-3,11.7C204.2,158.9,201.2,160.2,198,160.2L198,160.2z M262,96.2c-5.6,0-10.4-3.8-11.6-9.2
	L248.2,76c-0.7-3-0.2-6.2,1.5-8.9c1.7-2.7,4.3-4.6,7.4-5.3c0.9-0.2,1.8-0.3,2.8-0.3c5.5,0,10.3,3.8,11.6,9.2l2.2,11.1
	c0.9,4-0.2,8.2-3.2,11.1C268.2,95,265.2,96.2,262,96.2L262,96.2z M106.6,236.4c-3.2,0-6.2-1.2-8.4-3.5L80,214.7
	c-2.3-2.3-3.5-5.2-3.5-8.4s1.2-6.2,3.5-8.4c2.3-2.3,5.2-3.5,8.4-3.5c3.2,0,6.2,1.2,8.4,3.5l18.2,18.2c2.3,2.3,3.5,5.2,3.5,8.4
	c0,3.2-1.2,6.2-3.5,8.4C112.8,235.2,109.8,236.4,106.6,236.4z M82.2,276c-0.9,0-1.8-0.1-2.6-0.3l-12.9-1.2l-0.1,0
	c-6.4-1.5-10.4-8-8.8-14.4c1.3-5.4,6-9.2,11.6-9.2c0.9,0,1.8,0.1,2.6,0.3l12.9,1.2l0.1,0c3.1,0.7,5.7,2.6,7.4,5.3
	c1.7,2.7,2.2,5.9,1.4,9C92.5,272.2,87.8,276,82.2,276C82.2,276,82.2,276,82.2,276z M146.2,212c-5.6,0-10.4-3.8-11.6-9.2l-0.1-0.2
	l-0.2-15.8c-0.7-3-0.1-6.1,1.5-8.8c1.7-2.7,4.3-4.6,7.4-5.3c0.9-0.2,1.8-0.3,2.8-0.3c5.5,0,10.3,3.8,11.6,9.2l0.1,0.2l0.2,15.9
	c0.9,4-0.3,8.1-3.2,11C152.4,210.8,149.4,212,146.2,212C146.2,212,146.2,212,146.2,212z"/>
</svg>
