<svg xmlns="http://www.w3.org/2000/svg" viewBox="0 0 512 512"><path d="M256 0C115 0 0 115.1 0 256c0 141 115.1 256 256 256 141 0 256-115 256-256S397 0 256 0zm0 482C131.4 482 30 380.6 30 256S131.4 30 256 30s226 101.4 226 226-101.4 226-226 226z"/><path d="M290.5 419.1c-33.9 0-65.6-13.1-89.5-37l-90.5-90.5c-2.3-2.3-3.5-5.2-3.5-8.4s1.2-6.2 3.5-8.4l46.4-46.4c2.3-2.3 5.2-3.5 8.4-3.5s6.2 1.2 8.4 3.5l90.5 90.5c7 7 16.3 10.9 26.3 10.9 9.9 0 19.3-3.9 26.3-10.9s10.9-16.3 10.9-26.3-3.9-19.3-10.9-26.3l-90.5-90.5c-4.6-4.6-4.6-12.2 0-16.9l46.4-46.4c2.2-2.3 5.2-3.5 8.4-3.5s6.2 1.2 8.4 3.5L380 203c49.4 49.4 49.4 129.7 0 179.1-23.8 23.9-55.6 37-89.5 37zm-72.6-53.8c19.4 19.4 45.2 30.1 72.7 30.1s53.3-10.7 72.7-30.1c40.1-40.1 40.1-105.3 0-145.3l-49.5-49.5-29.6 29.5 49.5 49.5c23.8 23.8 23.8 62.5 0 86.3-11.5 11.5-26.8 17.8-43.1 17.8s-31.6-6.3-43.1-17.8L198 286.3l-29.5 29.5 49.4 49.5zm-66.4-66.4l29.5-29.5-15.7-15.7-29.5 29.5 15.7 15.7zm115.8-115.8l29.5-29.5-15.7-15.7-29.5 29.5 15.7 15.7zM222.4 120.6c-3.2 0-6.2-1.2-8.4-3.5l-18.2-18.2c-2.3-2.3-3.5-5.2-3.5-8.4s1.2-6.2 3.5-8.4c2.3-2.3 5.2-3.5 8.4-3.5s6.2 1.2 8.4 3.5l18.2 18.2c2.3 2.3 3.5 5.2 3.5 8.4s-1.2 6.2-3.5 8.4c-2.2 2.3-5.2 3.5-8.4 3.5zM198 160.2c-.9 0-1.8-.1-2.6-.3l-14.9-1.2h-.2c-3.1-.7-5.7-2.6-7.4-5.3-1.7-2.7-2.2-5.9-1.4-9 1.3-5.4 6-9.2 11.6-9.2.9 0 1.8.1 2.6.3l14.9 1.2h.2c4.3 1 7.5 4.1 8.7 8.3 1.2 4.2.1 8.6-3 11.7-2.3 2.2-5.3 3.5-8.5 3.5zM262 96.2c-5.6 0-10.4-3.8-11.6-9.2l-2.2-11c-.7-3-.2-6.2 1.5-8.9s4.3-4.6 7.4-5.3c.9-.2 1.8-.3 2.8-.3 5.5 0 10.3 3.8 11.6 9.2l2.2 11.1c.9 4-.2 8.2-3.2 11.1-2.3 2.1-5.3 3.3-8.5 3.3zM106.6 236.4c-3.2 0-6.2-1.2-8.4-3.5L80 214.7c-2.3-2.3-3.5-5.2-3.5-8.4s1.2-6.2 3.5-8.4c2.3-2.3 5.2-3.5 8.4-3.5s6.2 1.2 8.4 3.5l18.2 18.2c2.3 2.3 3.5 5.2 3.5 8.4s-1.2 6.2-3.5 8.4c-2.2 2.3-5.2 3.5-8.4 3.5zM82.2 276c-.9 0-1.8-.1-2.6-.3l-12.9-1.2h-.1c-6.4-1.5-10.4-8-8.8-14.4 1.3-5.4 6-9.2 11.6-9.2.9 0 1.8.1 2.6.3l12.9 1.2h.1c3.1.7 5.7 2.6 7.4 5.3 1.7 2.7 2.2 5.9 1.4 9-1.3 5.5-6 9.3-11.6 9.3zM146.2 212c-5.6 0-10.4-3.8-11.6-9.2l-.1-.2-.2-15.8c-.7-3-.1-6.1 1.5-8.8 1.7-2.7 4.3-4.6 7.4-5.3.9-.2 1.8-.3 2.8-.3 5.5 0 10.3 3.8 11.6 9.2l.1.2.2 15.9c.9 4-.3 8.1-3.2 11-2.3 2.1-5.3 3.3-8.5 3.3z"/></svg>