<svg xmlns="http://www.w3.org/2000/svg" viewBox="0 0 512 512">
  <path d="M453.3 266.7c-8.8 0-16 7.2-16 16V304h-10.7v-64c0-32.4-26.3-58.7-58.7-58.7h-96v-45.8c15.6-6.3 26.7-21.6 26.7-39.5 0-23.5-19.1-42.7-42.7-42.7S213.3 72.5 213.3 96c0 17.9 11.1 33.2 26.7 39.5v45.8h-96c-32.4 0-58.7 26.3-58.7 58.7v64H74.7v-21.3c0-8.8-7.2-16-16-16s-16 7.2-16 16v74.7c0 8.8 7.2 16 16 16s16-7.2 16-16V336h10.7v64c0 32.4 26.3 58.7 58.7 58.7h224c32.4 0 58.7-26.3 58.7-58.7v-64h10.7v21.3c0 8.8 7.2 16 16 16s16-7.2 16-16v-74.7c-.2-8.8-7.3-15.9-16.2-15.9zm-304 21.3c0-23.5 19.1-42.7 42.7-42.7s42.7 19.1 42.7 42.7-19.1 42.7-42.7 42.7-42.7-19.2-42.7-42.7zM304 394.7h-96c-8.8 0-16-7.2-16-16s7.2-16 16-16h96c8.8 0 16 7.2 16 16s-7.2 16-16 16zm16-64c-23.5 0-42.7-19.1-42.7-42.7s19.1-42.7 42.7-42.7 42.7 19.1 42.7 42.7-19.2 42.7-42.7 42.7z" />
</svg>