<svg xmlns="http://www.w3.org/2000/svg" viewBox="0 0 512 512"><circle cx="256" cy="256" r="256" fill="#ffd93b"/><path d="M512 256c0 141.44-114.64 256-256 256-80.48 0-152.32-37.12-199.28-95.28 43.92 35.52 99.84 56.72 160.72 56.72 141.36 0 256-114.56 256-256 0-60.88-21.2-116.8-56.72-160.72C474.8 103.68 512 175.52 512 256z" fill="#f4c534"/><g fill="#65b1ef"><path d="M459.52 126.384c2.608 13.84-6.432 27.2-20.256 29.808-13.824 2.592-27.232-6.56-29.824-20.384s14.384-61.776 14.384-61.776 33.088 38.528 35.696 52.352zM419.344 316.048c1.04 9.184-5.504 17.504-14.688 18.56-9.184 1.04-17.52-5.584-18.56-14.768s12.352-39.776 12.352-39.776 19.856 26.8 20.896 35.984zM501.184 241.504c.976 8.368-4.96 15.984-13.344 16.976-8.368.976-16-5.04-16.976-13.424-.976-8.368 11.152-36.32 11.152-36.32s18.176 24.384 19.168 32.768zM500.576 391.888c-.32 15.12-12.752 27.2-27.888 26.896-15.12-.304-27.2-12.896-26.88-28.016s28.736-61.824 28.736-61.824 26.352 47.824 26.032 62.944zM49.808 130.304c-2.8 14.864 6.912 29.232 21.776 32.032s29.264-7.04 32.064-21.92c2.8-14.864-15.456-66.4-15.456-66.4s-35.6 41.424-38.384 56.288zM10.896 241.6c-.976 8.32 4.944 15.888 13.264 16.864 8.32.976 15.904-5.008 16.88-13.344.976-8.32-11.088-36.096-11.088-36.096S11.872 233.28 10.896 241.6zM11.424 391.888c.32 15.12 12.752 27.2 27.888 26.896 15.12-.304 27.2-12.896 26.88-28.016s-28.736-61.824-28.736-61.824-26.352 47.824-26.032 62.944z"/></g><ellipse cx="176.96" cy="238.112" rx="63.52" ry="80.32" fill="#fff"/><circle cx="186.448" cy="261.12" r="31.232" fill="#3e4347"/><g fill="#fff"><ellipse transform="rotate(-134.999 198.588 248.972)" cx="198.587" cy="248.971" rx="9.36" ry="6.256"/><ellipse cx="335.008" cy="238.112" rx="63.52" ry="80.32"/></g><circle cx="325.552" cy="261.12" r="31.232" fill="#3e4347"/><ellipse transform="rotate(-134.999 313.407 248.986)" cx="313.406" cy="248.984" rx="6.256" ry="9.36" fill="#fff"/><path d="M372.8 433.488c2.496 9.856-6.16 18.848-15.216 16.288-67.616-18.64-135.424-18.64-203.216 0-9.056 2.576-17.52-6.432-15.216-16.288 13.872-57.424 60.864-99.648 116.928-99.648 55.856.016 102.848 42.224 116.72 99.648z" fill="#3e4347"/><path d="M348.288 381.488c-61.008-16.544-123.2-16.544-184.368 0 22.064-29.088 54.992-47.632 92.096-47.632 36.944 0 70.032 18.544 92.272 47.632z" fill="#fff"/><path d="M324.72 442.432c-9.856 37.104-34.096 69.536-68.528 69.536-34.768 0-58.832-32.592-68.528-69.696-6.016-22.4 13.376-42.784 36.112-38.784 21.568 3.68 43.12 3.68 64.688 0 22.88-4.016 42.096 16.368 36.256 38.944z" fill="#e24b4b"/><g fill="#3e4347"><path d="M395.376 144.736c-17.84-10.72-2.08-9.312-91.04-50.4 26.784-8.528 79.728 8.928 91.04 50.4zM207.696 94.336c-90.752 41.904-65.408 35.008-91.04 50.4 11.056-40.544 62.448-59.504 91.04-50.4z"/></g></svg>