<svg xmlns="http://www.w3.org/2000/svg" viewBox="0 0 512.01 512.01">
  <circle cx="255.973" cy="240.16" r="240.16" fill="#ffd93b" />
  <path d="M496.197 240.224c0 132.72-107.584 240.224-240.224 240.224-75.52 0-142.944-34.832-187.008-89.408 41.216 33.328 93.696 53.232 150.816 53.232 132.656 0 240.224-107.504 240.224-240.224 0-57.136-19.888-109.6-53.232-150.816 54.528 44.064 89.424 111.472 89.424 186.992z" fill="#f4c534" />
  <circle cx="179.573" cy="190.88" r="57.584" fill="#fff" />
  <circle cx="179.573" cy="190.896" r="31.424" fill="#3e4347" />
  <ellipse transform="rotate(-127.438 193.094 178.321)" cx="193.093" cy="178.32" rx="7.248" ry="5.2" fill="#5a5f63" />
  <g fill="#3e4347">
    <path d="M380.933 192.336a11.694 11.694 0 01-11.728 11.728h-71.472a11.694 11.694 0 01-11.728-11.728c0-6.4 5.232-11.728 11.728-11.728h71.472c6.512 0 11.728 5.328 11.728 11.728zM370.469 297.28c20.8 9.648-10.688 106.848-113.984 107.664-103.296-.8-134.784-98.016-113.984-107.664 17.776-11.44 60.832 18.384 113.984 18.768 53.616.416 96.224-30.208 113.984-18.768z" />
  </g>
  <path d="M304.325 363.632c-11.52-2.576-24.128 3.312-35.744 7.36-7.808 3.024-17.808 4.176-28.656 1.872-.192-.048-.4-.08-.592-.128-18.704-4.656-43.024-10.064-48.016 7.248-.016.128-.048.24-.064.368-4.192 22.672 2.16 49.904 8.096 76.96 7.968 29.152 27.296 52.208 52.336 54.464 29.232 2.784 52.656-19.552 61.472-52.128 6.064-27.824 12.928-55.968 8.608-79.296-1.648-9.072-9.04-14.608-17.44-16.72z" fill="#e24b4b" />
  <ellipse transform="rotate(-147.554 303.324 380.456)" cx="303.324" cy="380.456" rx="9.536" ry="5.44" fill="#fff" opacity=".2" />
</svg>