<svg xmlns="http://www.w3.org/2000/svg" viewBox="0 0 512 512">
  <path d="M256 0C115 0 0 115.1 0 256c0 141 115.1 256 256 256 141 0 256-115 256-256S397 0 256 0zm0 482C131.4 482 30 380.6 30 256S131.4 30 256 30s226 101.4 226 226-101.4 226-226 226z" />
  <path d="M390.8 158h-63.9l-4-16.1c-4.8-19.3-22.2-32.9-42.1-32.9h-49.4c-19.9 0-37.3 13.6-42.1 32.9l-4 16.1h-63.9c-6.8 0-12.3 5.5-12.3 12.3s5.5 12.3 12.3 12.3h12.9l10.3 185.8c1.1 19.5 17.2 34.7 36.7 34.7H331c19.5 0 35.6-15.2 36.7-34.7L378 182.6h12.9c6.8 0 12.3-5.5 12.3-12.3s-5.6-12.3-12.4-12.3zM213 147.8c2.1-8.4 9.7-14.3 18.4-14.3h49.4c8.7 0 16.2 5.9 18.4 14.3l2.5 10.2h-91.2l2.5-10.2zM343.1 367c-.4 6.5-5.7 11.6-12.2 11.6H181.2c-6.5 0-11.9-5.1-12.2-11.6l-10.2-184.5h194.7L343.1 367z" />
  <path d="M207 207c-6.8 0-12.3 5.5-12.3 12.3v122.5c0 6.8 5.5 12.3 12.3 12.3s12.3-5.5 12.3-12.3V219.2c-.1-6.7-5.5-12.2-12.3-12.2zM256 207c-6.8 0-12.3 5.5-12.3 12.3v122.5c0 6.8 5.5 12.3 12.3 12.3s12.3-5.5 12.3-12.3V219.2c0-6.7-5.5-12.2-12.3-12.2zM305 207c-6.8 0-12.3 5.5-12.3 12.3v122.5c0 6.8 5.5 12.3 12.3 12.3 6.8 0 12.3-5.5 12.3-12.3V219.2c0-6.7-5.5-12.2-12.3-12.2z" />
</svg>