<?xml version="1.0" encoding="utf-8"?>
<!-- Generator: Adobe Illustrator 25.2.2, SVG Export Plug-In . SVG Version: 6.00 Build 0)  -->
<svg version="1.1" id="Layer_1" xmlns="http://www.w3.org/2000/svg" xmlns:xlink="http://www.w3.org/1999/xlink" x="0px" y="0px"
	 viewBox="0 0 512 512" style="enable-background:new 0 0 512 512;" xml:space="preserve">
<path d="M66.9,428.2C25.4,382.6,0,322.2,0,256C0,115.1,115,0,256,0c66.2,0,126.7,25.4,172.2,66.8L337,158h-10.1l-4-16.1
	c-4.8-19.3-22.2-32.9-42.1-32.9h-49.4c-19.9,0-37.3,13.6-42.1,32.9l-4,16.1h-63.9c-6.8,0-12.3,5.5-12.3,12.3
	c0,6.8,5.5,12.3,12.3,12.3h12.9l9.4,168.8L66.9,428.2z M317.3,219.2v122.6c0,6.8-5.5,12.3-12.3,12.3s-12.3-5.5-12.3-12.3V236.3
	l-24.4,24.4v81.1c0,6.8-5.5,12.3-12.3,12.3s-12.3-5.5-12.3-12.3v-56.5l-24.4,24.4v32.1c0,6.8-5.5,12.3-12.3,12.3
	s-12.3-5.5-12.3-12.3v-7.5l-26.1,26.1l0.4,6.7c0.3,6.5,5.7,11.6,12.2,11.6h149.7c6.5,0,11.8-5.1,12.2-11.6l10.4-184.5h-7l-30.7,30.7
	C316.7,215,317.3,217,317.3,219.2z M280.8,133.5h-49.4c-8.7,0-16.3,5.9-18.4,14.3l-2.5,10.2h91.2l-2.5-10.2
	C297,139.4,289.5,133.5,280.8,133.5z M371,158h19.8c6.8,0,12.4,5.5,12.4,12.3c0,6.8-5.5,12.3-12.3,12.3v0H378l-10.3,185.8
	c-1.1,19.5-17.2,34.7-36.7,34.7H181.3c-14.9,0-27.9-8.9-33.6-21.8l-63.9,63.9c45.5,41.5,106,66.9,172.2,66.9c141,0,256-115,256-256
	c0-66.2-25.4-126.7-66.8-172.2L371,158z M166.9,328.2l27.8-27.8v-81c0-6.8,5.5-12.3,12.3-12.3s12.2,5.5,12.3,12.2v56.5l24.4-24.4
	v-32c0-6.8,5.5-12.3,12.3-12.3s12.3,5.5,12.3,12.2v7.5l44.2-44.2H158.8L166.9,328.2z"/>
</svg>
